<svg viewBox="0 0 50 35" fill="none" xmlns="http://www.w3.org/2000/svg" style="background-color: white;"> 
<g clip-path="url(#clip0)"> 
<path d="M0.600098 0.719971L47.4701 16.94L0.730098 33.78L0.600098 0.719971Z" fill="white"></path> 
<path d="M23.6501 8.59003L0.900098 16.84L0.600098 0.840027L23.6501 8.59003Z" fill="green"></path> 
<path opacity="0.9" d="M23.6501 25.1L0.900098 33.35L0.600098 17.35L23.6501 25.1Z" fill="red"></path> 
<path d="M0 34.71V0L49.55 17L0 34.71ZM1.2 1.68V33.01L45.94 17.02L1.2 1.68Z" fill="white"></path> 
<path d="M23.432 8.03225L0.345215 16.9521L0.777695 18.0715L23.8645 9.15161L23.432 8.03225Z" fill="white"></path> 
<path d="M1.0069 16.2428L0.585938 17.3666L23.6145 25.9928L24.0354 24.869L1.0069 16.2428Z" fill="white"></path> 
<path d="M25.0599 15.05C24.9599 14.88 24.8299 14.74 24.6799 14.62C24.5299 14.49 24.3499 14.4 24.1599 14.33C23.9699 14.26 23.7599 14.23 23.5499 14.23C23.1599 14.23 22.8299 14.31 22.5599 14.46C22.2899 14.61 22.0699 14.81 21.8999 15.06C21.7299 15.31 21.6099 15.6 21.5299 15.92C21.4499 16.24 21.4099 16.58 21.4099 16.92C21.4099 17.25 21.4499 17.57 21.5299 17.88C21.6099 18.19 21.7299 18.47 21.8999 18.72C22.0699 18.97 22.2899 19.17 22.5599 19.32C22.8299 19.47 23.1599 19.55 23.5499 19.55C24.0799 19.55 24.4899 19.39 24.7899 19.07C25.0899 18.75 25.2699 18.32 25.3299 17.79H26.9999C26.9599 18.28 26.8399 18.72 26.6599 19.12C26.4799 19.52 26.2299 19.85 25.9299 20.13C25.6299 20.41 25.2799 20.62 24.8699 20.77C24.4699 20.92 24.0199 20.99 23.5399 20.99C22.9399 20.99 22.3999 20.89 21.9199 20.68C21.4399 20.47 21.0399 20.18 20.7099 19.82C20.3799 19.46 20.1299 19.02 19.9499 18.53C19.7699 18.04 19.6899 17.5 19.6899 16.93C19.6899 16.34 19.7799 15.8 19.9499 15.3C20.1299 14.8 20.3799 14.36 20.7099 13.99C21.0399 13.62 21.4499 13.32 21.9199 13.11C22.3999 12.9 22.9399 12.79 23.5399 12.79C23.9699 12.79 24.3799 12.85 24.7699 12.98C25.1499 13.1 25.4999 13.29 25.7999 13.52C26.0999 13.76 26.3599 14.05 26.5499 14.41C26.7399 14.77 26.8699 15.16 26.9199 15.62H25.2499C25.2299 15.4 25.1699 15.22 25.0599 15.05Z" fill="green"></path> 
</g> 
<defs> 
<clipPath id="clip0"> 
<rect width="49.55" height="34.71" fill="white"></rect> 
</clipPath> 
</defs> 
</svg>